<svg xmlns="http://www.w3.org/2000/svg" fill="none" viewBox="0 0 600 600"><path fill="#649AD2" d="M566.9 176.4q0-15-6.5-26.7A51 51 0 0 0 541 131L327.8 8.1a52 52 0 0 0-56.7.5C242.8 25.3 101 106.5 58.9 131a49 49 0 0 0-25.8 45.5v247.2q0 14.8 6.2 26.2A51 51 0 0 0 59 469c42.2 24.4 183.9 105.6 212.2 122.3a52 52 0 0 0 56.7.5Q434.5 530.3 541.2 469a51 51 0 0 0 19.6-19.4 53 53 0 0 0 6.2-26.1z"/><path fill="#004482" d="M300.8 299.2 39.3 449.8A51 51 0 0 0 59 469c42.2 24.4 183.9 105.6 212.2 122.3a52 52 0 0 0 56.7.5Q434.5 530.3 541.2 469a51 51 0 0 0 19.6-19.4z"/><path fill="#1A4674" d="M223.4 343.8a88.2 88.2 0 0 0 153.5-.5l-76-44.1z"/><path fill="#01589C" d="M566.9 176.4q0-15-6.5-26.7L300.8 299.2l259.9 150.5a53 53 0 0 0 6.2-26.1z"/><path fill="#fff" d="M552.6 310h-20.3v20.3H512V310h-20.3v-20.3H512v-20.4h20.3v20.4h20.3zM300 122.7c65 0 121.7 35 152.6 87l1 1.6-77.2 44.4a88.2 88.2 0 1 0 0 88.5l.5-1 77 44.7A177.2 177.2 0 1 1 300 122.7m158.2 146.6v20.4h20.3V310h-20.3v20.3h-20.3V310h-20.3v-20.3h20.3v-20.4z"/></svg>