<svg xmlns="http://www.w3.org/2000/svg" fill="none" viewBox="0 0 600 600"><g clip-path="url(#devicon-css-1-a)"><path fill="#639" d="M0 0h504a96 96 0 0 1 96 96v408a96 96 0 0 1-96 96H96a96 96 0 0 1-96-96z"/><path fill="#fff" d="M214.9 552c-38.6 0-62.4-21.7-61.9-61.7v-101q0-30.4 17.8-46.2c21.3-20.5 70.7-21.7 91.5.3 12.9 11.4 17.7 34.5 16.6 56.1h-44.2c.3-8.5-.2-21.3-5.2-26.2-6.4-8.7-23.6-7.7-28.1 1.4a46 46 0 0 0-4.2 22v87.7q0 27.6 19.2 28 9 0 13.6-6.6c4.3-5.1 5-16.5 4.6-24.8H279c3 42-21.8 71.5-64 71m140.4 0c-42.7.6-61.8-29.8-60.6-71h41.7c-1.1 18 5 34.3 19.8 33.2q9.9 0 14-6.2c5-7.6 6-29.4-1.3-37.8-5.1-8.2-23.4-15.3-33.1-20.2a72 72 0 0 1-29.9-23.5c-13.7-20.2-12.4-64.5 6.9-82.5 18.7-22.1 67.5-23.1 86.2-.4 11.6 11.7 16.6 34.7 15.7 56h-40.3c.4-8.8-.4-22.9-3.8-28q-3.6-6.5-13.5-6.5-17.6 0-17.6 21c.1 15 6 21.1 19.5 27.4 17.5 6.8 39.8 18.4 48 32.5 24 43 7.5 108.5-51.7 106m134.8 0c-42.7.6-61.8-29.8-60.6-71h41.8c-1.2 18 5 34.3 19.8 33.2q9.9 0 13.9-6.2c5-7.6 6-29.4-1.3-37.8-5-8.2-23.4-15.3-33-20.2a72 72 0 0 1-29.9-23.5c-13.7-20.2-12.4-64.5 6.8-82.5 18.7-22.1 67.6-23.1 86.3-.4 11.5 11.7 16.6 34.7 15.6 56h-40.2c.3-8.8-.5-22.9-3.9-28q-3.5-6.5-13.4-6.5-17.7 0-17.6 21c0 15 5.9 21.1 19.4 27.4 17.6 6.8 39.9 18.4 48 32.5 24.1 43 7.6 108.5-51.7 106"/></g><defs><clipPath id="devicon-css-1-a"><path fill="#fff" d="M0 0h600v600H0z"/></clipPath></defs></svg>