<svg xmlns="http://www.w3.org/2000/svg" fill="none" viewBox="0 0 600 600"><g clip-path="url(#devicon-git-icon-1-a)"><path fill="#DE4C36" d="m588.7 273.3-262-262c-15-15-39.5-15-54.6 0l-54.4 54.4 69 69a45.9 45.9 0 0 1 58 58.5l66.6 66.5a46 46 0 1 1-27.5 26l-62-62v163.1q6.5 3.3 12 8.7a46 46 0 1 1-49.9-10V220.8a46 46 0 0 1-25-60.3l-68-68L11.3 272a38.6 38.6 0 0 0 0 54.6l262 262c15 15 39.5 15 54.6 0l260.8-260.8c15-15 15-39.5 0-54.6"/></g><defs><clipPath id="devicon-git-icon-1-a"><path fill="#fff" d="M0 0h600v600H0z"/></clipPath></defs></svg>