<svg xmlns="http://www.w3.org/2000/svg" fill="none" viewBox="0 0 600 600"><g clip-path="url(#devicon-javascript-1-a)"><path fill="#F7DF1E" d="M0 0h600v600H0z"/><path fill="#000" d="m157.8 501.4 45.9-27.8c8.8 15.7 16.9 29 36.2 29 18.5 0 30.2-7.2 30.2-35.4V275.5h56.4V468c0 58.4-34.2 85-84.2 85-45 0-71.2-23.4-84.5-51.6m199.3-6 46-26.6c12 19.7 27.7 34.2 55.5 34.2 23.4 0 38.3-11.7 38.3-27.8 0-19.3-15.3-26.2-41-37.4l-14.2-6c-40.7-17.4-67.6-39.1-67.6-85 0-42.3 32.2-74.6 82.5-74.6 35.9 0 61.6 12.5 80.2 45.1l-44 28.2c-9.6-17.3-20-24.1-36.2-24.1-16.5 0-27 10.4-27 24.1 0 17 10.5 23.8 34.7 34.3l14 6c48 20.6 75 41.5 75 88.6 0 50.8-39.9 78.6-93.5 78.6-52.3 0-86.1-25-102.7-57.6"/></g><defs><clipPath id="devicon-javascript-1-a"><path fill="#fff" d="M0 0h600v600H0z"/></clipPath></defs></svg>