<svg xmlns="http://www.w3.org/2000/svg" fill="none" viewBox="0 0 600 600"><path fill="#4353FF" d="M193.7 283.6c0-10.8-10.4-22.2-28.5-22.2-20.4 0-42.7 14.9-46.1 44.7-3.5 30 15.2 43.4 34 43.4S182 342 192 332.3a17 17 0 0 0-22-4.7c-2.5 1.2-5.5 2.8-11.7 2.8-7.3 0-14.7-3.3-14.7-16.9 46.6-4.6 50.1-19.2 50.1-30m-23 1.7c-.3 3.4-1.7 9.1-25.3 12.3 5-17.7 14.5-19 18.9-19 4 0 6.7 3.2 6.4 6.7m-79 3-10.9 34-7.6-59.2c-17 0-26.2 12.2-31 25l-13.3 34.3c0-2.5-1.8-33.9-1.8-33.9A28 28 0 0 0 0 263.2l14.1 85.6c17.9 0 27.5-12.2 32.6-25l11.2-29.1c0 1.2 7.7 54.1 7.7 54.1 18 0 27.6-11.3 32.8-23.7l25.2-61.9c-17.7 0-27.1 12.1-32 25m168-27c-11.1 0-19.6 6-26.7 14.8v-.1l6.4-51.5c-14.7 0-26.7 12.8-29 31.8l-11 91.8c8.4 0 17.4-2.4 22.2-8.6 4.3 5.5 10.7 10 20.3 10 24.8 0 41.8-28.8 41.8-55.8-.1-24.7-12-32.5-24-32.5m-2.3 44c-2.6 15.2-11 25.4-19.1 25.4s-11.7-3.6-11.7-3.6c1.6-13.3 2.5-21.3 5.5-28.3s10-18.1 17.4-18.1c7.2 0 10.5 9.5 7.9 24.7m88.2-42h-17.3v-1c1.3-11.3 4-17.2 12.8-18.2 6-.5 8.7-3.7 9.3-7l2.2-12c-34.7-.3-45.7 14.7-48.5 37.6v.5h-.4c-5.7 0-11.9 6.4-13 14.5l-.3 3H302l-9.8 80.3-3 14.4h1.3c16.2-.5 26.6-13.4 29-32l7.5-62.7h5.4c5.3 0 11.6-5.4 12.7-14.3zm90-1.6c-20 0-38.8 14.7-44.6 37.8s3 50.4 32.3 50.4c29.4 0 46.3-28.4 46.3-52s-16-36.2-34-36.2m8 43c-1 10.4-5.6 26.3-18.2 26.3s-10.9-18.6-9.6-27.4c1.3-9.4 6.6-22.9 18-22.9 10 0 11 12.1 9.9 24m124.6-16.5-10.8 34.1-7.7-59.2c-17 0-26.2 12.2-31 25l-13.2 34.3c0-2.5-1.9-33.9-1.9-33.9a28 28 0 0 0-27-25.3l14 85.6c17.9 0 27.5-12.2 32.6-25l11.1-29.1c0 1.2 7.7 54.1 7.7 54.1 18 0 27.6-11.3 32.8-23.7l25.2-61.9c-17.7 0-27 12.1-31.8 25m-206.2-63-14.5 117.3-3 14.5h1.2c15.7-.1 26.8-13.9 28.9-31.2l8.4-67.3c2.5-20.6-9.7-33.3-21-33.3"/></svg>